<svg width="128" height="40" viewBox="0 0 128 40" fill="none" xmlns="http://www.w3.org/2000/svg">
<g clip-path="url(#clip0_1_1620)">
<path d="M41.6504 24.7892V10.6649H34.4046V24.7892H30.3309V10.6649H27.7932V7.32582H30.3309C30.4199 5.18882 31.0488 3.46363 32.2342 2.15026C33.414 0.836898 34.9388 0.180206 36.8087 0.180206C37.7771 0.180206 38.9569 0.391672 40.3482 0.820189L39.1461 3.92553C38.2557 3.63058 37.5767 3.48589 37.0981 3.48589C36.3301 3.48589 35.679 3.81423 35.1392 4.47647C34.6049 5.13316 34.3378 5.94567 34.3378 6.90286C34.3378 7.04756 34.3601 7.1867 34.4046 7.32582H45.791V24.7892H41.6505H41.6504ZM43.7541 0.547505C44.4108 0.547505 44.9673 0.781242 45.4292 1.24314C45.8911 1.70506 46.1248 2.26156 46.1248 2.91824C46.1248 3.56937 45.8911 4.13144 45.4292 4.59334C44.9673 5.05525 44.4108 5.28899 43.7541 5.28899C43.1029 5.28899 42.5409 5.05525 42.079 4.59334C41.6171 4.13144 41.3833 3.56936 41.3833 2.91824C41.3833 2.26155 41.6171 1.70506 42.079 1.24314C42.5409 0.781242 43.103 0.547505 43.7541 0.547505ZM50.7996 10.5981H48.7627V7.32582H50.7996V3.78085L54.8733 2.28383V7.32583H59.6816V10.5981H54.8733V18.2557C54.8733 19.5079 55.0681 20.3927 55.4632 20.9103C55.8583 21.4278 56.5429 21.6838 57.5279 21.6838C58.5129 21.6838 59.4312 21.4167 60.2827 20.8825V24.6333C59.3366 24.9617 57.9842 25.1231 56.2257 25.1231C54.4838 25.1231 53.1425 24.6333 52.2076 23.6483C51.2671 22.6633 50.7996 21.2609 50.7996 19.4411V10.5981L50.7996 10.5981ZM62.3028 16.0185C62.3028 13.3528 63.0708 11.1824 64.6068 9.50734C66.1428 7.83224 68.1741 6.99189 70.6951 6.99189C73.3441 6.99189 75.3977 7.79883 76.8669 9.40716C78.3305 11.0155 79.0651 13.2193 79.0651 16.0185C79.0651 18.8011 78.3194 21.016 76.8279 22.6577C75.3309 24.2994 73.2885 25.1231 70.6951 25.1231C68.0405 25.1231 65.9814 24.2938 64.5122 22.6354C63.0374 20.977 62.3028 18.7677 62.3028 16.0185V16.0185ZM66.5435 16.0185C66.5435 19.864 67.9292 21.784 70.6951 21.784C71.964 21.784 72.9657 21.2831 73.7114 20.287C74.4516 19.2853 74.8245 17.8606 74.8245 16.0185C74.8245 12.2287 73.4499 10.331 70.6951 10.331C69.4207 10.331 68.4134 10.8318 67.6676 11.828C66.9163 12.8297 66.5435 14.2266 66.5435 16.0185V16.0185ZM92.0543 3.92553C91.1638 3.63058 90.4849 3.48589 90.0063 3.48589C89.2383 3.48589 88.5872 3.81423 88.0474 4.47647C87.5131 5.13316 87.246 5.94567 87.246 6.90286C87.246 7.04756 87.246 7.1867 87.246 7.32582H90.8522V10.6649H87.3127V24.7892H83.239V10.6649H80.7013V7.32582H83.239C83.3281 5.18882 83.9569 3.46363 85.1423 2.15026C86.3221 0.836898 87.847 0.180206 89.7169 0.180206C90.6852 0.180206 91.8651 0.391672 93.2564 0.820189L92.0543 3.92553ZM104.398 23.0473C104.031 23.6539 103.385 24.1547 102.467 24.5443C101.548 24.9283 100.591 25.1231 99.5895 25.1231C97.7141 25.1231 96.2337 24.65 95.1596 23.7095C94.0856 22.769 93.5457 21.4334 93.5457 19.7026C93.5457 17.6769 94.3026 16.0909 95.8163 14.95C97.33 13.8092 99.4838 13.236 102.272 13.236C102.751 13.236 103.313 13.3139 103.964 13.4697C103.964 11.4218 102.667 10.3978 100.074 10.3978C98.5433 10.3978 97.2577 10.6538 96.2281 11.1658L95.3488 7.99363C96.7513 7.32582 98.4208 6.9919 100.357 6.9919C103.018 6.9919 104.971 7.59851 106.212 8.8117C107.453 10.0249 108.071 12.3177 108.071 15.7013V19.4355C108.071 21.7617 108.538 23.2254 109.473 23.8208C109.134 24.4163 108.761 24.778 108.349 24.9172C107.937 25.0563 107.464 25.1231 106.93 25.1231C106.34 25.1231 105.811 24.906 105.344 24.4664C104.876 24.0323 104.559 23.5592 104.398 23.0473L104.398 23.0473ZM103.997 16.5417C103.301 16.4081 102.784 16.3413 102.433 16.3413C99.2222 16.3413 97.6195 17.4042 97.6195 19.5246C97.6195 21.0995 98.5266 21.8842 100.335 21.8842C102.778 21.8842 103.997 20.6487 103.997 18.1833V16.5416V16.5417ZM123.687 24.7892V14.6885C123.687 13.197 123.403 12.1118 122.83 11.4273C122.262 10.7428 121.333 10.3978 120.042 10.3978C119.446 10.3978 118.806 10.5647 118.127 10.9042C117.448 11.2381 116.92 11.661 116.541 12.1619V24.7892H112.467V7.32582H115.4L116.146 8.9564C117.253 7.6486 118.89 6.9919 121.049 6.9919C123.125 6.9919 124.761 7.6152 125.963 8.86179C127.159 10.1028 127.76 11.8447 127.76 14.0707V24.7892H123.687L123.687 24.7892Z" fill="#FEFEFE"/>
<path fill-rule="evenodd" clip-rule="evenodd" d="M19.2143 5.35971e-05C16.3913 0.00425406 13.7466 0.112947 10.9218 0.120505C7.28868 0.130222 3.24589 0.123979 2.85885 0.125341C1.76505 0.129206 0.529185 -0.143085 0.112954 0.902738C-0.0402839 1.28774 0.034829 3.90539 0.0348752 4.51978C0.035106 6.84522 0.033225 9.17066 0.032348 11.4961C0.0313209 14.2072 0.00697182 17.054 0.0110108 19.7637C0.028886 20.4719 0.193341 21.0465 1.01987 21.165C1.47702 21.2305 2.26697 21.186 2.75896 21.1871C3.37325 21.1885 3.81775 21.2242 4.18139 20.8495C4.80632 20.2056 4.55647 18.6296 4.5525 17.6374L4.50748 7.17285C4.5055 6.722 4.44828 5.80728 4.57005 5.43106C4.91483 4.3657 6.15786 4.62092 7.22369 4.61775L12.4538 4.60129C13.3498 4.5985 15.033 4.43456 15.6164 4.90877C16.1905 5.37539 16.0543 7.53413 15.8775 7.96016C15.499 8.87205 14.1492 8.64438 13.07 8.6497C12.4443 8.65278 10.0865 8.58434 9.6794 8.74295C9.29784 8.89162 9.01497 9.24498 8.93312 9.74184C8.88335 10.044 8.90873 11.6177 8.94061 11.9488C9.06044 13.1932 10.1161 13.1363 11.2891 13.1322C12.4242 13.1283 13.654 13.0795 14.7777 13.1232C16.2205 13.1793 16.0204 14.5287 16.0245 15.3397C16.0274 15.9261 16.0567 16.3571 15.7142 16.7526C15.3448 17.1792 15.1095 17.1791 14.3896 17.1834C13.2128 17.1906 12.036 17.1967 10.8593 17.2036C9.71507 17.2104 8.97333 17.2704 8.98402 18.7948L8.99739 24.1584C8.99852 24.6016 8.90386 25.4626 9.2009 25.702C9.50012 25.8661 10.272 24.9189 10.483 24.6842L12.817 22.3106C13.3994 21.8069 13.4291 21.6294 14.4832 21.6308C16.0521 21.6328 17.4481 21.5857 19.017 21.5919C19.7194 21.5947 20.2619 21.4014 20.452 20.6503C20.5704 20.1823 20.5072 18.7695 20.507 18.2077L20.5019 6.84424L20.5004 3.61415C20.5001 2.59667 20.7177 0.88229 20.0312 0.30536C19.6639 -0.003316 19.6119 0.140435 19.2143 3.05176e-05L19.2143 5.35971e-05Z" fill="#F2705B"/>
<path d="M4.76781 34.0733C4.50207 33.7843 4.21818 33.5704 3.91744 33.433C3.61539 33.2943 3.28224 33.2256 2.91798 33.2256C2.62371 33.2256 2.33723 33.2852 2.05723 33.4044C1.77852 33.5237 1.53482 33.6896 1.33002 33.9022C1.11742 34.1226 0.957982 34.3689 0.851676 34.6411C0.745383 34.9133 0.69223 35.2141 0.69223 35.5433C0.69223 35.8013 0.723342 36.0398 0.786857 36.2576C0.850372 36.4754 0.945011 36.675 1.07204 36.8578C1.29501 37.1741 1.56853 37.4178 1.8939 37.5889C2.21928 37.76 2.57057 37.8455 2.94779 37.8455C3.30299 37.8455 3.63224 37.7717 3.93558 37.6252C4.24021 37.4787 4.51761 37.2596 4.76781 36.968V37.8455C4.4917 38.0452 4.19483 38.1969 3.87725 38.2993C3.55965 38.4017 3.23039 38.4522 2.89077 38.4522C2.5978 38.4522 2.31132 38.4081 2.03262 38.3213C1.75391 38.2344 1.49335 38.1061 1.24965 37.9389C0.845203 37.6589 0.53538 37.3128 0.321489 36.9031C0.107586 36.4922 0 36.0424 0 35.5511C0 35.1233 0.0712933 34.7332 0.215195 34.3832C0.357782 34.0319 0.575562 33.7143 0.869829 33.4278C1.15372 33.1543 1.46742 32.9495 1.81224 32.8146C2.15707 32.6785 2.53299 32.6111 2.94003 32.6111C3.26282 32.6111 3.57393 32.6604 3.87467 32.7576C4.1767 32.8548 4.47356 33.0052 4.76782 33.21V34.0734L4.76781 34.0733ZM6.18467 36.5778C6.18467 36.9446 6.30783 37.2557 6.55282 37.5098C6.79913 37.7652 7.09728 37.8922 7.44597 37.8922C7.79339 37.8922 8.08895 37.7652 8.33265 37.5098C8.57505 37.2557 8.6969 36.9446 8.6969 36.5778C8.6969 36.2109 8.57505 35.8998 8.33265 35.6457C8.08894 35.3904 7.79338 35.2633 7.44597 35.2633C7.09467 35.2633 6.79653 35.3904 6.55151 35.6457C6.30651 35.8998 6.18466 36.2109 6.18466 36.5778H6.18467ZM5.55468 36.5752C5.55468 36.3198 5.60133 36.0787 5.69467 35.8519C5.78931 35.6263 5.92542 35.4241 6.1056 35.2465C6.2858 35.0689 6.48931 34.9341 6.71747 34.842C6.94561 34.75 7.18802 34.7033 7.44728 34.7033C7.70007 34.7033 7.93988 34.75 8.16673 34.8433C8.39359 34.938 8.5984 35.0741 8.78377 35.2543C8.96396 35.4293 9.10007 35.6289 9.19471 35.8558C9.28804 36.0826 9.3347 36.3224 9.3347 36.5752C9.3347 36.8293 9.28804 37.0678 9.19471 37.292C9.10007 37.5163 8.96396 37.7159 8.78377 37.8896C8.5984 38.0724 8.39228 38.2111 8.16284 38.3083C7.9334 38.4043 7.69488 38.4522 7.44728 38.4522C7.19062 38.4522 6.94821 38.4043 6.71876 38.3096C6.48931 38.215 6.2858 38.0789 6.1056 37.9013C5.92542 37.7185 5.78931 37.5163 5.69467 37.2933C5.60133 37.0704 5.55468 36.8318 5.55468 36.5752ZM10.259 38.3044V34.8278H10.8423V35.3644C10.9914 35.1415 11.1716 34.9756 11.3816 34.8667C11.5916 34.7578 11.8353 34.7033 12.1101 34.7033C12.521 34.7033 12.8412 34.8122 13.0707 35.03C13.3014 35.2478 13.4168 35.5511 13.4168 35.9387V38.3044H12.8101V36.2576C12.8101 35.905 12.7362 35.6444 12.5884 35.4733C12.4394 35.3022 12.2112 35.2167 11.9027 35.2167C11.7251 35.2167 11.5631 35.2491 11.4179 35.3139C11.2727 35.3787 11.1521 35.4694 11.0549 35.5887C10.9823 35.6794 10.9292 35.7844 10.8981 35.8998C10.8656 36.0165 10.8501 36.2187 10.8501 36.5078V38.3044H10.259L10.259 38.3044ZM14.5925 38.3044V34.8278H15.1759V35.3644C15.3249 35.1415 15.5051 34.9756 15.7151 34.8667C15.9251 34.7578 16.1688 34.7033 16.4437 34.7033C16.8546 34.7033 17.1748 34.8122 17.4042 35.03C17.635 35.2478 17.7503 35.5511 17.7503 35.9387V38.3044H17.1437V36.2576C17.1437 35.905 17.0698 35.6444 16.922 35.4733C16.7729 35.3022 16.5448 35.2167 16.2363 35.2167C16.0587 35.2167 15.8966 35.2491 15.7514 35.3139C15.6062 35.3787 15.4857 35.4694 15.3885 35.5887C15.3159 35.6794 15.2627 35.7844 15.2316 35.8998C15.1992 36.0165 15.1837 36.2187 15.1837 36.5078V38.3044H14.5925L14.5925 38.3044ZM21.3916 36.1733C21.3709 35.8674 21.2698 35.6315 21.0857 35.4655C20.9029 35.2996 20.6515 35.2166 20.3326 35.2166C20.0435 35.2166 19.8024 35.3035 19.6105 35.4772C19.4174 35.6496 19.3059 35.8816 19.2761 36.1733H21.3917L21.3916 36.1733ZM22.0294 36.6555H19.2761V36.7087C19.2761 37.0807 19.3824 37.3815 19.595 37.6109C19.8076 37.8404 20.085 37.9544 20.4272 37.9544C20.6592 37.9544 20.8706 37.8922 21.0572 37.7665C21.2452 37.642 21.4111 37.4528 21.555 37.2L22.0061 37.5033C21.8324 37.817 21.6094 38.0542 21.3385 38.2137C21.0676 38.3731 20.7539 38.4522 20.3961 38.4522C19.8672 38.4522 19.4394 38.2772 19.1127 37.9285C18.7861 37.5785 18.6227 37.1196 18.6227 36.5531C18.6227 36.0087 18.7848 35.5628 19.1088 35.2154C19.4329 34.8693 19.849 34.6956 20.3585 34.6956C20.8718 34.6956 21.2789 34.8602 21.5796 35.1894C21.8791 35.5187 22.0294 35.9685 22.0294 36.5376V36.6556L22.0294 36.6555ZM25.593 37.48V38.1722C25.4361 38.2655 25.2598 38.3355 25.0628 38.3822C24.8671 38.4289 24.6545 38.4522 24.4263 38.4522C23.8896 38.4522 23.458 38.2824 23.13 37.9414C22.802 37.6005 22.6374 37.1533 22.6374 36.5985C22.6374 36.0411 22.8072 35.5861 23.1469 35.2335C23.4865 34.8796 23.9208 34.7033 24.4497 34.7033C24.6415 34.7033 24.8295 34.7241 25.0135 34.7642C25.1976 34.8044 25.37 34.8641 25.5321 34.9431V35.5822C25.3804 35.4837 25.2235 35.4085 25.0615 35.3567C24.8995 35.3048 24.7348 35.2789 24.5676 35.2789C24.1774 35.2789 23.8637 35.4007 23.6291 35.6457C23.3932 35.8894 23.2752 36.2148 23.2752 36.6192C23.2752 36.977 23.3932 37.2752 23.6304 37.5163C23.8676 37.7561 24.1645 37.8767 24.5209 37.8767C24.7011 37.8767 24.8774 37.8442 25.0498 37.7807C25.2222 37.7172 25.4024 37.6174 25.593 37.48V37.48ZM26.5121 35.3178H25.8743V34.8278H26.5121V33.4278H27.1187V34.8278H27.7565V35.3178H27.1187V38.3044H26.5121V35.3178ZM28.323 33.153C28.323 33.035 28.3658 32.9326 28.4501 32.847C28.5356 32.7628 28.6393 32.72 28.7612 32.72C28.8791 32.72 28.9815 32.7628 29.0671 32.8496C29.1514 32.9352 29.1941 33.0389 29.1941 33.1607C29.1941 33.28 29.1527 33.3824 29.0684 33.4654C28.9854 33.5496 28.8817 33.5911 28.7612 33.5911C28.6393 33.5911 28.5356 33.5496 28.4501 33.4654C28.3658 33.3824 28.323 33.2774 28.323 33.153ZM28.463 38.3044V34.8278H29.0619V38.3044H28.463ZM30.3154 38.3044V34.8278H30.8988V35.3644C31.0479 35.1415 31.228 34.9755 31.438 34.8667C31.648 34.7578 31.8917 34.7033 32.1666 34.7033C32.5775 34.7033 32.8977 34.8122 33.1271 35.03C33.3579 35.2478 33.4733 35.5511 33.4733 35.9387V38.3044H32.8666V36.2576C32.8666 35.905 32.7927 35.6444 32.6449 35.4733C32.4958 35.3022 32.2677 35.2167 31.9592 35.2167C31.7816 35.2167 31.6195 35.2491 31.4743 35.3139C31.3292 35.3787 31.2086 35.4694 31.1114 35.5887C31.0388 35.6794 30.9856 35.7844 30.9545 35.8998C30.9221 36.0165 30.9066 36.2187 30.9066 36.5078V38.3044H30.3154L30.3154 38.3044ZM37.309 36.5778C37.309 36.1876 37.2027 35.8739 36.9901 35.6354C36.7762 35.3981 36.4975 35.2789 36.1501 35.2789C35.7936 35.2789 35.5149 35.3891 35.314 35.6094C35.1144 35.8298 35.0145 36.137 35.0145 36.5324C35.0145 36.9524 35.1157 37.2765 35.3166 37.5033C35.5175 37.7314 35.8027 37.8455 36.1734 37.8455C36.5273 37.8455 36.806 37.7341 37.007 37.5098C37.2079 37.2855 37.309 36.9744 37.309 36.5778H37.309ZM37.8846 34.8278V38.2435C37.8846 38.6207 37.8587 38.889 37.8081 39.0498C37.7575 39.2092 37.6746 39.3518 37.5579 39.4788C37.3959 39.6538 37.1975 39.7848 36.9629 39.8703C36.7296 39.9572 36.4599 40 36.1566 40C35.629 40 35.2194 39.8794 34.9238 39.6383C34.6283 39.3972 34.4753 39.0563 34.4623 38.6155H35.1312V38.6609C35.1312 38.9228 35.2207 39.1237 35.4009 39.2663C35.5811 39.4076 35.8351 39.4789 36.1644 39.4789C36.4029 39.4789 36.6064 39.44 36.775 39.3635C36.9435 39.2857 37.0718 39.1703 37.16 39.0187C37.2131 38.9331 37.252 38.832 37.274 38.7179C37.2974 38.6039 37.309 38.4405 37.309 38.2279V37.9544V37.6446C37.1742 37.8922 36.9979 38.0815 36.7814 38.215C36.5637 38.3472 36.3187 38.4133 36.0477 38.4133C35.5486 38.4133 35.1468 38.2435 34.8422 37.9039C34.5375 37.5655 34.3846 37.1144 34.3846 36.5531C34.3846 35.9854 34.5324 35.5355 34.8292 35.2024C35.1248 34.8692 35.5214 34.7033 36.0179 34.7033C36.3057 34.7033 36.5598 34.7681 36.7775 34.8991C36.9953 35.03 37.1664 35.2231 37.2935 35.4759V34.8278H37.8846H37.8846ZM40.7222 32.7433H41.4378L42.8468 36.8344L44.3168 32.5255L45.8011 36.8344L47.218 32.7433H47.9322L45.7791 38.5222L44.3246 34.2211L42.8767 38.5222L40.7222 32.7433ZM48.4106 36.5778C48.4106 36.9446 48.5337 37.2557 48.7787 37.5098C49.025 37.7652 49.3232 37.8922 49.6719 37.8922C50.0193 37.8922 50.3149 37.7652 50.5586 37.5098C50.801 37.2557 50.9228 36.9446 50.9228 36.5778C50.9228 36.2109 50.801 35.8998 50.5586 35.6457C50.3148 35.3903 50.0193 35.2633 49.6719 35.2633C49.3206 35.2633 49.0224 35.3903 48.7774 35.6457C48.5324 35.8998 48.4106 36.2109 48.4106 36.5778H48.4106ZM47.7806 36.5752C47.7806 36.3198 47.8272 36.0787 47.9206 35.8518C48.0152 35.6263 48.1513 35.4241 48.3315 35.2465C48.5117 35.0689 48.7152 34.9341 48.9434 34.842C49.1715 34.75 49.4139 34.7033 49.6732 34.7033C49.926 34.7033 50.1658 34.75 50.3926 34.8433C50.6195 34.938 50.8243 35.0741 51.0097 35.2543C51.1899 35.4292 51.326 35.6289 51.4206 35.8557C51.514 36.0826 51.5606 36.3224 51.5606 36.5752C51.5606 36.8293 51.514 37.0678 51.4206 37.292C51.326 37.5163 51.1899 37.7159 51.0097 37.8896C50.8243 38.0724 50.6182 38.2111 50.3887 38.3083C50.1593 38.4042 49.9208 38.4522 49.6732 38.4522C49.4165 38.4522 49.1741 38.4042 48.9447 38.3096C48.7152 38.215 48.5117 38.0789 48.3315 37.9013C48.1513 37.7185 48.0152 37.5163 47.9206 37.2933C47.8272 37.0703 47.7806 36.8318 47.7806 36.5752ZM52.4927 38.3044V34.8278H53.0229V35.5524C53.1823 35.2504 53.3521 35.0352 53.5323 34.9055C53.7125 34.7759 53.9316 34.7111 54.1895 34.7111C54.2608 34.7111 54.3295 34.7163 54.3956 34.728C54.4605 34.7396 54.5266 34.7565 54.5927 34.7785L54.3956 35.3178C54.3269 35.2944 54.2621 35.2776 54.2012 35.2659C54.1403 35.2543 54.0819 35.2491 54.0262 35.2491C53.7125 35.2491 53.4765 35.3618 53.3197 35.5887C53.1628 35.8155 53.0838 36.1564 53.0838 36.6114V38.3044H52.4927V38.3044ZM55.246 38.3044V32.4167H55.8527V38.3044H55.246ZM59.7585 36.5855C59.7585 36.1979 59.6509 35.8855 59.4357 35.6496C59.2205 35.4124 58.9366 35.2944 58.584 35.2944C58.2327 35.2944 57.9579 35.402 57.7609 35.6172C57.5625 35.8324 57.464 36.1292 57.464 36.509C57.464 36.9368 57.5638 37.2726 57.7634 37.5137C57.9644 37.7561 58.2405 37.8766 58.5918 37.8766C58.9573 37.8766 59.2425 37.7626 59.4486 37.5344C59.6548 37.3076 59.7585 36.99 59.7585 36.5855V36.5855ZM60.334 32.4167V38.3044H59.7585V37.6757C59.6211 37.9259 59.4447 38.1178 59.227 38.2513C59.0092 38.3848 58.7655 38.4522 58.4972 38.4522C57.9981 38.4522 57.5962 38.2811 57.2916 37.9376C56.987 37.594 56.834 37.1403 56.834 36.5752C56.834 36.0061 56.9831 35.5511 57.2825 35.2128C57.5807 34.8731 57.9786 34.7033 58.4751 34.7033C58.7629 34.7033 59.0144 34.7681 59.227 34.8991C59.4396 35.03 59.6107 35.2257 59.7429 35.4837V32.4167H60.334H60.334ZM65.6592 33.9878L64.7752 36.0333H66.5446L65.6592 33.9878ZM65.6592 32.5255L68.1883 38.3044H67.4715L66.7495 36.6011H64.5781L63.8561 38.3044H63.1405L65.6593 32.5255H65.6592ZM68.795 35.3178H68.1572V34.8278H68.795V33.4278H69.4017V34.8278H70.0395V35.3178H69.4017V38.3044H68.795V35.3178ZM70.7149 38.3044V32.4167H71.2982V35.3644C71.4473 35.1415 71.6274 34.9755 71.8375 34.8667C72.0475 34.7578 72.2912 34.7033 72.566 34.7033C72.9769 34.7033 73.2971 34.8122 73.5266 35.03C73.7573 35.2478 73.8727 35.5511 73.8727 35.9387V38.3044H73.266V36.2576C73.266 35.905 73.1921 35.6444 73.0443 35.4733C72.8952 35.3022 72.6671 35.2167 72.3586 35.2167C72.181 35.2167 72.019 35.2491 71.8738 35.3139C71.7286 35.3787 71.608 35.4694 71.5108 35.5887C71.4382 35.6794 71.3851 35.7844 71.3539 35.8998C71.3215 36.0165 71.306 36.2187 71.306 36.5078V38.3044H70.7149L70.7149 38.3044ZM75.0795 38.3044V32.4167H75.6862V38.3044H75.0795ZM79.3975 36.1733C79.3768 35.8674 79.2757 35.6315 79.0916 35.4655C78.9088 35.2996 78.6573 35.2166 78.3385 35.2166C78.0494 35.2166 77.8083 35.3035 77.6164 35.4772C77.4233 35.6496 77.3118 35.8816 77.282 36.1733H79.3975L79.3975 36.1733ZM80.0353 36.6555H77.282V36.7087C77.282 37.0807 77.3882 37.3815 77.6008 37.6109C77.8134 37.8403 78.0909 37.9544 78.4331 37.9544C78.6651 37.9544 78.8764 37.8922 79.0631 37.7665C79.251 37.642 79.417 37.4527 79.5609 37.2L80.012 37.5033C79.8383 37.817 79.6153 38.0542 79.3444 38.2137C79.0734 38.3731 78.7597 38.4522 78.4019 38.4522C77.8731 38.4522 77.4453 38.2772 77.1186 37.9285C76.7919 37.5785 76.6286 37.1196 76.6286 36.5531C76.6286 36.0087 76.7906 35.5628 77.1147 35.2154C77.4388 34.8693 77.8549 34.6955 78.3644 34.6955C78.8777 34.6955 79.2847 34.8602 79.5855 35.1894C79.8849 35.5187 80.0353 35.9685 80.0353 36.5376V36.6555L80.0353 36.6555ZM81.0244 35.3178H80.3866V34.8278H81.0244V33.4278H81.6311V34.8278H82.2689V35.3178H81.6311V38.3044H81.0244V35.3178ZM85.4098 36.1733C85.3891 35.8674 85.2879 35.6315 85.1039 35.4655C84.9211 35.2996 84.6696 35.2166 84.3507 35.2166C84.0616 35.2166 83.8205 35.3035 83.6287 35.4772C83.4355 35.6496 83.3241 35.8816 83.2942 36.1733H85.4098L85.4098 36.1733ZM86.0476 36.6555H83.2942V36.7087C83.2942 37.0807 83.4005 37.3815 83.6131 37.6109C83.8257 37.8403 84.1031 37.9544 84.4454 37.9544C84.6774 37.9544 84.8887 37.8922 85.0754 37.7665C85.2633 37.642 85.4292 37.4527 85.5731 37.2L86.0242 37.5033C85.8505 37.817 85.6276 38.0542 85.3566 38.2137C85.0857 38.3731 84.772 38.4522 84.4142 38.4522C83.8853 38.4522 83.4576 38.2772 83.1309 37.9285C82.8042 37.5785 82.6409 37.1196 82.6409 36.5531C82.6409 36.0087 82.8029 35.5628 83.127 35.2154C83.4511 34.8693 83.8672 34.6955 84.3766 34.6955C84.89 34.6955 85.297 34.8602 85.5977 35.1894C85.8972 35.5187 86.0476 35.9685 86.0476 36.5376V36.6555L86.0476 36.6555ZM86.5765 37.7198L87.0859 37.3789C87.1819 37.5629 87.3024 37.7003 87.4502 37.7924C87.5967 37.8844 87.7704 37.9311 87.97 37.9311C88.1644 37.9311 88.3226 37.8831 88.4432 37.7872C88.5637 37.6913 88.6234 37.5642 88.6234 37.4074C88.6234 37.2868 88.5819 37.1857 88.5002 37.1041C88.4172 37.0237 88.2759 36.9485 88.0763 36.8811L87.9778 36.8461C87.1326 36.5557 86.71 36.1902 86.71 35.752C86.71 35.4435 86.8241 35.1907 87.0509 34.9963C87.2791 34.8005 87.5746 34.7033 87.9389 34.7033C88.2409 34.7033 88.4989 34.763 88.7141 34.8835C88.9293 35.0041 89.0835 35.1739 89.1769 35.3943L88.6959 35.6911C88.6246 35.5317 88.5196 35.4085 88.3822 35.323C88.2435 35.2361 88.0841 35.1933 87.9013 35.1933C87.7263 35.1933 87.5837 35.2426 87.4735 35.3398C87.3633 35.437 87.3089 35.5615 87.3089 35.7145C87.3089 35.9271 87.5396 36.1059 87.9998 36.2498C88.0867 36.2783 88.1554 36.2991 88.2059 36.3146C88.5818 36.4365 88.845 36.5752 88.9928 36.7307C89.1406 36.8863 89.2144 37.0911 89.2144 37.3478C89.2144 37.6757 89.0978 37.9428 88.8631 38.1463C88.6298 38.3498 88.3239 38.4522 87.9466 38.4522C87.6226 38.4522 87.3478 38.3913 87.1209 38.2694C86.8954 38.1489 86.7126 37.9648 86.5765 37.7198L86.5765 37.7198ZM109.992 35.2179C110.353 35.3722 110.627 35.577 110.81 35.8324C110.994 36.0878 111.086 36.3911 111.086 36.7398C111.086 37.2505 110.922 37.6627 110.597 37.9752C110.272 38.2876 109.841 38.4444 109.303 38.4444C108.865 38.4444 108.498 38.3329 108.201 38.1087C107.906 37.8844 107.706 37.5668 107.601 37.1546L108.201 36.8578C108.283 37.1948 108.417 37.4502 108.603 37.6239C108.789 37.7976 109.022 37.8844 109.303 37.8844C109.635 37.8844 109.904 37.7885 110.11 37.5979C110.314 37.4061 110.417 37.1572 110.417 36.8513C110.417 36.6024 110.346 36.3872 110.202 36.2031C110.059 36.0191 109.844 35.8648 109.555 35.7378L108.878 35.4487C108.509 35.2944 108.233 35.0961 108.052 34.8524C107.871 34.61 107.78 34.3183 107.78 33.9787C107.78 33.5833 107.927 33.2567 108.221 32.9987C108.515 32.7407 108.89 32.6111 109.346 32.6111C109.679 32.6111 109.97 32.6824 110.213 32.8237C110.458 32.9663 110.649 33.175 110.785 33.4524L110.238 33.8011C110.115 33.5859 109.975 33.4265 109.821 33.3215C109.666 33.2165 109.491 33.1633 109.297 33.1633C109.048 33.1633 108.844 33.2398 108.686 33.3915C108.528 33.5432 108.449 33.7363 108.449 33.9722C108.449 34.1693 108.51 34.3404 108.632 34.4843C108.752 34.6294 108.942 34.7565 109.197 34.868L109.992 35.218L109.992 35.2179ZM112.479 36.5778C112.479 36.9679 112.587 37.2804 112.802 37.5163C113.017 37.7509 113.302 37.8689 113.658 37.8689C114.004 37.8689 114.277 37.7613 114.476 37.5461C114.674 37.3309 114.774 37.0328 114.774 36.6503C114.774 36.2226 114.674 35.8868 114.476 35.6431C114.277 35.4007 114 35.2789 113.646 35.2789C113.283 35.2789 112.999 35.3942 112.79 35.625C112.583 35.8544 112.479 36.172 112.479 36.5778H112.479ZM111.904 40V34.8278H112.471V35.4837C112.606 35.2322 112.784 35.0391 113.003 34.9055C113.223 34.7707 113.47 34.7033 113.741 34.7033C114.242 34.7033 114.644 34.8744 114.947 35.2166C115.252 35.5576 115.404 36.0113 115.404 36.5752C115.404 37.1507 115.255 37.607 114.958 37.9453C114.66 38.2837 114.262 38.4522 113.763 38.4522C113.477 38.4522 113.227 38.3874 113.015 38.2565C112.802 38.1268 112.63 37.9324 112.495 37.6757V40H111.904L111.904 40ZM116.701 36.5778C116.701 36.9446 116.825 37.2557 117.069 37.5098C117.316 37.7652 117.614 37.8922 117.963 37.8922C118.31 37.8922 118.606 37.7652 118.849 37.5098C119.092 37.2557 119.214 36.9446 119.214 36.5778C119.214 36.2109 119.092 35.8998 118.849 35.6457C118.606 35.3903 118.31 35.2633 117.963 35.2633C117.611 35.2633 117.313 35.3903 117.068 35.6457C116.823 35.8998 116.701 36.2109 116.701 36.5778H116.701ZM116.071 36.5752C116.071 36.3198 116.118 36.0787 116.211 35.8518C116.306 35.6263 116.442 35.4241 116.622 35.2465C116.802 35.0689 117.006 34.9341 117.234 34.842C117.462 34.75 117.705 34.7033 117.964 34.7033C118.217 34.7033 118.457 34.75 118.683 34.8433C118.91 34.938 119.115 35.0741 119.3 35.2543C119.481 35.4292 119.617 35.6289 119.711 35.8557C119.805 36.0826 119.851 36.3224 119.851 36.5752C119.851 36.8293 119.805 37.0678 119.711 37.292C119.617 37.5163 119.481 37.7159 119.3 37.8896C119.115 38.0724 118.909 38.2111 118.68 38.3083C118.45 38.4042 118.212 38.4522 117.964 38.4522C117.707 38.4522 117.465 38.4042 117.235 38.3096C117.006 38.215 116.802 38.0789 116.622 37.9013C116.442 37.7185 116.306 37.5163 116.211 37.2933C116.118 37.0703 116.071 36.8318 116.071 36.5752ZM120.783 38.3044V34.8278H121.314V35.5524C121.473 35.2504 121.643 35.0352 121.823 34.9055C122.003 34.7759 122.222 34.7111 122.48 34.7111C122.552 34.7111 122.62 34.7163 122.686 34.728C122.751 34.7396 122.817 34.7565 122.883 34.7785L122.686 35.3178C122.618 35.2944 122.553 35.2776 122.492 35.2659C122.431 35.2543 122.373 35.2491 122.317 35.2491C122.003 35.2491 121.767 35.3618 121.61 35.5887C121.454 35.8155 121.375 36.1564 121.375 36.6114V38.3044H120.783V38.3044ZM123.599 35.3178H122.961V34.8278H123.599V33.4278H124.206V34.8278H124.843V35.3178H124.206V38.3044H123.599V35.3178ZM125.152 37.7198L125.661 37.3789C125.757 37.5629 125.878 37.7003 126.026 37.7924C126.172 37.8844 126.346 37.9311 126.546 37.9311C126.74 37.9311 126.898 37.8831 127.019 37.7872C127.139 37.6913 127.199 37.5642 127.199 37.4074C127.199 37.2868 127.157 37.1857 127.076 37.1041C126.993 37.0237 126.851 36.9485 126.652 36.8811L126.553 36.8461C125.708 36.5557 125.286 36.1902 125.286 35.752C125.286 35.4435 125.4 35.1907 125.626 34.9963C125.855 34.8005 126.15 34.7033 126.514 34.7033C126.816 34.7033 127.074 34.763 127.29 34.8835C127.505 35.0041 127.659 35.1739 127.752 35.3943L127.271 35.6911C127.2 35.5317 127.095 35.4085 126.958 35.323C126.819 35.2361 126.66 35.1933 126.477 35.1933C126.302 35.1933 126.159 35.2426 126.049 35.3398C125.939 35.437 125.884 35.5615 125.884 35.7145C125.884 35.9271 126.115 36.1059 126.575 36.2498C126.662 36.2783 126.731 36.2991 126.781 36.3146C127.157 36.4365 127.421 36.5752 127.568 36.7307C127.716 36.8863 127.79 37.0911 127.79 37.3478C127.79 37.6757 127.673 37.9428 127.439 38.1463C127.205 38.3498 126.899 38.4522 126.522 38.4522C126.198 38.4522 125.923 38.3913 125.696 38.2694C125.471 38.1489 125.288 37.9648 125.152 37.7198L125.152 37.7198ZM95.0647 36.6011C95.0647 36.2083 94.9571 35.892 94.7432 35.6535C94.5293 35.4137 94.2506 35.2944 93.9058 35.2944C93.5493 35.2944 93.2706 35.4046 93.071 35.625C92.8701 35.8454 92.7702 36.1526 92.7702 36.5479C92.7702 36.9679 92.8714 37.292 93.0723 37.5189C93.2732 37.747 93.5597 37.8611 93.9291 37.8611C94.283 37.8611 94.5617 37.7509 94.7627 37.5292C94.9636 37.3076 95.0647 36.9978 95.0647 36.6011H95.0647ZM95.6403 34.8278V38.3044H95.0647V37.6744C94.926 37.9272 94.7471 38.1203 94.5306 38.2526C94.3141 38.3861 94.0717 38.4522 93.8034 38.4522C93.3056 38.4522 92.9025 38.2811 92.5979 37.9376C92.2932 37.594 92.1403 37.1403 92.1403 36.5752C92.1403 36.0035 92.288 35.5485 92.5849 35.2102C92.8804 34.8718 93.2771 34.7033 93.7736 34.7033C94.064 34.7033 94.3168 34.7681 94.5307 34.8991C94.7445 35.03 94.9182 35.2257 95.0492 35.4837V34.8278H95.6403H95.6403ZM96.829 38.3044V34.8278H97.4123V35.3644C97.5614 35.1415 97.7416 34.9755 97.9516 34.8667C98.1616 34.7578 98.4053 34.7033 98.6801 34.7033C99.091 34.7033 99.4112 34.8122 99.6407 35.03C99.8714 35.2478 99.9868 35.5511 99.9868 35.9387V38.3044H99.3801V36.2576C99.3801 35.905 99.3062 35.6444 99.1585 35.4733C99.0094 35.3022 98.7812 35.2167 98.4727 35.2167C98.2951 35.2167 98.1331 35.2491 97.9879 35.3139C97.8427 35.3787 97.7221 35.4694 97.6249 35.5887C97.5523 35.6794 97.4992 35.7844 97.4681 35.8998C97.4357 36.0165 97.4201 36.2187 97.4201 36.5078V38.3044H96.829L96.829 38.3044ZM103.823 36.5855C103.823 36.1979 103.715 35.8855 103.5 35.6496C103.285 35.4124 103.001 35.2944 102.648 35.2944C102.297 35.2944 102.022 35.402 101.825 35.6172C101.627 35.8324 101.528 36.1292 101.528 36.509C101.528 36.9368 101.628 37.2726 101.828 37.5137C102.028 37.7561 102.305 37.8766 102.656 37.8766C103.021 37.8766 103.307 37.7626 103.513 37.5344C103.719 37.3076 103.823 36.99 103.823 36.5855V36.5855ZM104.398 32.4167V38.3044H103.823V37.6757C103.685 37.9259 103.509 38.1178 103.291 38.2513C103.073 38.3848 102.83 38.4522 102.561 38.4522C102.062 38.4522 101.66 38.2811 101.356 37.9376C101.051 37.594 100.898 37.1403 100.898 36.5752C100.898 36.0061 101.047 35.5511 101.347 35.2128C101.645 34.8731 102.043 34.7033 102.539 34.7033C102.827 34.7033 103.079 34.7681 103.291 34.8991C103.504 35.03 103.675 35.2257 103.807 35.4837V32.4167H104.398H104.398Z" fill="#FEFEFE"/>
</g>
<defs>
<clipPath id="clip0_1_1620">
<rect width="127.79" height="40" fill="white"/>
</clipPath>
</defs>
</svg>
